<?xml version="1.0" encoding="UTF-8"?>
<svg width="26px" height="19px" viewBox="0 0 26 19" version="1.1" xmlns="http://www.w3.org/2000/svg" xmlns:xlink="http://www.w3.org/1999/xlink">
    <!-- Generator: Sketch 51.2 (57519) - http://www.bohemiancoding.com/sketch -->
    <title>Page 1</title>
    <desc>Created with Sketch.</desc>
    <defs></defs>
    <g id="Userflow" stroke="none" stroke-width="1" fill="none" fill-rule="evenodd">
        <g id="Cart---multiple-item" transform="translate(-1103.000000, -20.000000)">
            <g id="Page-1" transform="translate(1104.000000, 21.000000)">
                <path d="M5.5922963,2.0928768 C5.35573306,0.864903475 4.33895191,-0.0124449402 3.16935973,0.00013353166 L0.27623534,0.00013353166 C0.123424301,0.00013353166 0,0.132207487 0,0.294155312 C0,0.457675447 0.123424301,0.589749402 0.27623534,0.589749402 L3.16935973,0.589749402 C4.07006326,0.594466329 4.84881182,1.26898689 5.04129496,2.21079997 L6.75013379,10.4638498 C7.04840918,11.9496818 8.27824418,13.0047012 9.69762364,12.9999842 L19.5318956,12.9999842 C20.9747845,13.0015566 22.2178435,11.9182357 22.5073029,10.4056744 L23.9942718,2.0928768 C24.0251279,1.93250128 23.9281517,1.778415 23.7797486,1.7438242 C23.7660348,1.74067958 19.3105155,1.73858317 10.4131907,1.73753496 C10.261849,1.73753496 10.1384247,1.86960892 10.1384247,2.03312905 C10.1384247,2.19507688 10.261849,2.32715083 10.4131907,2.32715083 L23.4168224,2.32715083 L21.9827496,10.2877512 C21.7594104,11.53302 20.7455679,12.433953 19.559813,12.4402422 L9.72554104,12.4402422 C8.55447952,12.4512484 7.53769838,11.5739 7.30113513,10.3459267 L5.5922963,2.0928768 Z" id="Fill-1" stroke="#373837" stroke-width="0.25" fill="#000000"></path>
                <path d="M8.5,18 C7.67091541,18 7,17.3304348 7,16.5008696 C7,15.6713043 7.67091541,15 8.5,15 C9.32734647,15 10,15.6713043 10,16.5008696 C10,17.3304348 9.32734647,18 8.5,18 Z" id="Fill-5" fill="#373837"></path>
                <path d="M22,16.5008696 C22,17.3304348 21.327736,18 20.5008686,18 C19.672264,18 19,17.3304348 19,16.5008696 C19,15.6713043 19.672264,15 20.5008686,15 C21.327736,15 22,15.6713043 22,16.5008696" id="Fill-7" fill="#373837"></path>
            </g>
        </g>
    </g>
</svg>